<svg width="69" height="75" viewBox="0 0 69 75" fill="none" xmlns="http://www.w3.org/2000/svg">
<path d="M69 52.82C69 64.9482 59.1682 74.78 47.04 74.78L14.1 74.78C10.7311 74.78 7.99999 72.049 7.99999 68.68L8 27.2C8 20.4622 13.4621 15 20.2 15L62.9 15C66.2689 15 69 17.7311 69 21.1L69 52.82Z" fill="#FF4848"/>
<path d="M1.51105 0C0.636233 0 0 0.636233 0 1.51105V62.1918C0 63.0666 0.636233 63.7029 1.51105 63.7029H38.3331C39.2079 63.7029 39.8441 63.0666 39.8441 62.1918V1.51105C39.8441 0.636233 39.2079 0 38.3331 0L1.51105 0ZM7.95292 7.95292H31.8117V47.7175H7.95292V7.95292ZM19.8823 51.694C22.1091 51.694 23.8588 53.4436 23.8588 55.6704C23.8588 57.8972 22.1091 59.6469 19.8823 59.6469C17.6555 59.6469 15.9058 57.8972 15.9058 55.6704C15.9058 53.4436 17.6555 51.694 19.8823 51.694Z" fill="black"/>
</svg>
