<svg width="200" height="60" viewBox="0 0 224 60" fill="none" xmlns="http://www.w3.org/2000/svg">
<path d="M0.750442 47.8629C0.983184 46.4665 1.23532 45.0506 1.50685 43.6154C1.81717 42.1801 2.18568 40.5897 2.61237 38.8442C3.07786 37.0986 3.64032 35.1009 4.29975 32.8511C4.99797 30.6013 5.83196 27.9829 6.80172 24.9961C6.21987 25.0349 5.57983 25.093 4.8816 25.1706C4.22217 25.2482 3.60152 25.3064 3.01967 25.3452C3.01967 24.1039 3.48515 23.1535 4.41612 22.4941C5.34709 21.8347 6.56898 21.3498 8.0818 21.0395C8.23696 20.4964 8.37272 20.0697 8.4891 19.7594C8.60547 19.4491 8.74123 19.0612 8.89639 18.5957C9.05155 18.1302 9.2843 17.4901 9.59462 16.6756C9.90494 15.8222 10.3122 14.6197 10.8165 13.0681C11.3596 11.5165 12.0578 9.47996 12.9112 6.9586C12.9888 6.76465 13.1245 6.37674 13.3185 5.79489C13.5124 5.21304 13.6094 4.66997 13.6094 4.1657C13.6094 3.85538 13.5512 3.64203 13.4349 3.52566C13.3573 3.40929 13.1633 3.35111 12.853 3.35111C12.0772 3.35111 11.282 3.70022 10.4674 4.39844C9.69159 5.09667 8.97397 5.98884 8.31454 7.07497C7.65511 8.12231 7.13144 9.22783 6.74353 10.3915C6.35563 11.5165 6.16168 12.525 6.16168 13.4172C6.16168 13.7275 6.20047 14.0766 6.27805 14.4645C6.35563 14.8524 6.51079 15.3761 6.74353 16.0355C5.11434 16.0355 3.93124 15.6864 3.19423 14.9882C2.496 14.2512 2.14689 13.3202 2.14689 12.1953C2.14689 10.8764 2.53479 9.55754 3.3106 8.23868C4.12519 6.91981 5.15313 5.71731 6.39442 4.63118C7.6745 3.50627 9.01276 2.61409 10.4092 1.95466C11.8445 1.25643 13.1633 0.90732 14.3658 0.90732C15.6071 0.90732 16.4605 1.23704 16.926 1.89647C17.3915 2.55591 17.6242 3.29292 17.6242 4.10752C17.6242 4.53421 17.566 4.9609 17.4496 5.38759C17.3721 5.81429 17.2751 6.22158 17.1587 6.60949L12.9112 20.574C13.3767 20.5352 13.8421 20.5158 14.3076 20.5158C14.8119 20.5158 15.3162 20.5158 15.8205 20.5158C17.7212 20.5158 19.5055 20.5546 21.1735 20.6322C22.8415 20.7097 24.4513 20.8261 26.0029 20.9813C26.9726 17.7229 27.7872 15.0464 28.4467 12.9517C29.1449 10.857 29.7461 9.13085 30.2504 7.77319C30.7935 6.37674 31.2784 5.15485 31.7051 4.10752C31.8602 3.79719 32.0736 3.3899 32.3451 2.88562C32.6554 2.34256 33.0821 1.87708 33.6252 1.48917C34.207 1.06248 34.9634 0.849136 35.8944 0.849136C35.3901 2.20679 34.7695 4.01054 34.0325 6.26037C33.3342 8.47142 32.6166 10.8958 31.8796 13.5335C31.1426 16.1325 30.4444 18.712 29.7849 21.2722C30.328 21.2722 31.0844 21.311 32.0542 21.3886C33.0627 21.4274 33.9937 21.4468 34.8471 21.4468C33.6446 22.6493 32.5778 23.4057 31.6469 23.716C30.7159 23.9875 29.8625 24.1233 29.0867 24.1233C28.66 25.9076 28.2721 27.6144 27.923 29.2436C27.5739 30.8728 27.283 32.3856 27.0502 33.7821C26.5847 36.2646 26.2356 38.4369 26.0029 40.2988C25.8089 42.122 25.712 43.6154 25.712 44.7791C25.712 45.3997 25.7314 45.9428 25.7701 46.4083C25.8477 46.9125 25.9253 47.3974 26.0029 47.8629C24.0246 47.669 22.6669 47.1841 21.9299 46.4083C21.2317 45.6713 20.8826 44.3524 20.8826 42.4517C20.8826 41.5595 20.9408 40.5703 21.0571 39.4842C21.2123 38.3981 21.4644 37.118 21.8135 35.644C22.1239 34.2087 22.5506 32.5602 23.0936 30.6982C23.6367 28.8363 24.2961 26.664 25.0719 24.1815C22.7057 24.1815 20.7468 24.2009 19.1952 24.2397C17.6436 24.2784 16.2859 24.3172 15.1222 24.356C13.9585 24.3948 12.7948 24.4724 11.6311 24.5888C11.5923 24.7439 11.4953 25.0736 11.3402 25.5779C11.185 26.0822 10.9135 26.9744 10.5256 28.2544C10.1377 29.5345 9.55583 31.4158 8.78002 33.8984C8.00422 36.381 6.95688 39.717 5.63801 43.9063C5.21132 45.3415 4.47431 46.3501 3.42697 46.9319C2.37963 47.5526 1.48746 47.8629 0.750442 47.8629ZM37.5059 44.6627C35.7603 44.6627 34.5578 44.0809 33.8984 42.9172C33.2777 41.7922 32.9674 40.5509 32.9674 39.1933C32.9674 37.952 33.1614 36.6913 33.5493 35.4112C33.9372 34.0924 34.4608 32.8705 35.1203 31.7456C35.8185 30.6206 36.5749 29.7285 37.3895 29.069C38.2429 28.3708 39.0963 28.0217 39.9496 28.0217C40.2212 28.0217 40.5315 28.0799 40.8806 28.1963C41.2685 28.2738 41.54 28.4096 41.6952 28.6036C41.2297 29.1854 40.7448 29.903 40.2406 30.7564C39.7751 31.6098 39.329 32.5214 38.9023 33.4911C38.5144 34.4221 38.2041 35.3724 37.9713 36.3422C37.7386 37.312 37.6222 38.2041 37.6222 39.0187C37.6222 39.7945 37.758 40.4346 38.0295 40.9388C38.3399 41.4431 38.8635 41.6953 39.6005 41.6953C40.3375 41.6953 41.2103 41.288 42.2189 40.4734C43.2662 39.62 44.2554 38.6502 45.1863 37.5641C43.945 36.4392 43.0529 35.2173 42.5098 33.8984C41.9667 32.5408 41.6952 30.9116 41.6952 29.0108C41.6952 28.1963 41.8892 27.2653 42.2771 26.218C42.7038 25.1706 43.3632 24.259 44.2554 23.4832C45.1863 22.7074 46.4276 22.3195 47.9792 22.3195C49.6472 22.3195 50.8109 22.785 51.4703 23.716C52.1686 24.6469 52.5177 25.7525 52.5177 27.0325C52.5177 28.4678 52.1298 30.0776 51.354 31.8619C50.617 33.6463 49.7248 35.3337 48.6775 36.9241C49.1429 37.1568 49.686 37.2732 50.3066 37.2732C50.8885 37.2732 51.5867 37.1374 52.4013 36.8659C53.2159 36.5943 54.0111 36.1483 54.7869 35.5276C55.5627 34.8682 56.1834 33.9954 56.6488 32.9093L57.6962 33.6657C56.8428 35.644 55.6985 37.0986 54.2632 38.0296C52.8668 38.9218 51.4897 39.3678 50.1321 39.3678C49.6278 39.3678 49.1235 39.3291 48.6193 39.2515C48.115 39.1351 47.6495 38.9993 47.2228 38.8442C45.9039 40.3958 44.3911 41.7534 42.6844 42.9172C40.9776 44.0809 39.2514 44.6627 37.5059 44.6627ZM46.6991 35.7022C47.6301 34.3445 48.4253 32.8899 49.0847 31.3383C49.7442 29.7867 50.0739 28.3514 50.0739 27.0325C50.0739 26.1404 49.9381 25.5003 49.6666 25.1124C49.3951 24.6857 48.9878 24.4724 48.4447 24.4724C47.7077 24.4724 46.9513 24.9961 46.1755 26.0434C45.3997 27.0907 45.0118 28.4096 45.0118 30C45.0118 30.8146 45.1475 31.8037 45.4191 32.9675C45.7294 34.1312 46.1561 35.0427 46.6991 35.7022ZM60.3186 44.5463C58.4955 44.5463 57.2154 43.9451 56.4784 42.7426C55.7802 41.5013 55.431 40.0467 55.431 38.3787C55.431 36.478 55.7802 34.2475 56.4784 31.6874C57.1766 29.1272 58.0882 26.4507 59.2131 23.6578C60.3768 20.8261 61.6375 18.072 62.9951 15.3955C64.3916 12.6802 65.788 10.2364 67.1845 8.06412C68.5809 5.89187 69.861 4.1657 71.0247 2.88562C72.2272 1.56675 73.197 0.90732 73.934 0.90732C74.4383 0.90732 74.865 1.17885 75.2141 1.72192C75.5632 2.22619 75.8347 2.84683 76.0287 3.58385C76.2614 4.28207 76.3778 4.94151 76.3778 5.56215C76.3778 6.60949 76.1062 7.98654 75.5632 9.69331C75.0589 11.3613 74.3219 13.2038 73.3521 15.2209C72.4212 17.238 71.2963 19.3133 69.9774 21.4468C68.6973 23.5414 67.2621 25.5391 65.6717 27.4398C64.1201 29.3406 62.4521 30.9892 60.6677 32.3856C60.5126 33.3554 60.3574 34.3251 60.2022 35.2949C60.0859 36.2258 60.0277 37.0792 60.0277 37.855C60.0277 39.2515 60.2604 40.2794 60.7259 40.9388C61.1914 41.5595 61.7926 41.8698 62.5297 41.8698C63.4994 41.8698 64.4886 41.4237 65.4971 40.5316C66.5444 39.6006 67.5336 38.4369 68.4646 37.0404C69.4343 35.6052 70.2683 34.1312 70.9665 32.6183L72.363 33.3748C70.695 36.8271 68.8331 39.5618 66.7772 41.5789C64.7213 43.5572 62.5684 44.5463 60.3186 44.5463ZM61.7151 28.7781C63.0339 27.3429 64.2752 25.7913 65.4389 24.1233C66.6414 22.4165 67.7276 20.6903 68.6973 18.9448C69.7059 17.1992 70.5786 15.5118 71.3156 13.8827C72.0527 12.2535 72.6151 10.7988 73.003 9.51875C73.4297 8.19989 73.6625 7.15255 73.7012 6.37674C73.7012 6.33795 73.7012 6.31856 73.7012 6.31856C73.7012 6.27977 73.7012 6.24098 73.7012 6.20219C73.3909 6.20219 72.8867 6.64828 72.1884 7.54045C71.529 8.39384 70.7338 9.57694 69.8028 11.0898C68.8719 12.6026 67.9021 14.3287 66.8936 16.2683C65.9238 18.2078 64.9734 20.2637 64.0425 22.4359C63.1503 24.5694 62.3745 26.6834 61.7151 28.7781ZM72.3698 59.0927C71.4 59.0927 70.4885 58.7824 69.6351 58.1617C68.8205 57.5799 68.4132 56.6295 68.4132 55.3106C68.4132 54.0693 68.7817 52.9444 69.5187 51.9359C70.2557 50.9661 71.2061 50.0546 72.3698 49.2012C73.5335 48.3866 74.7748 47.6302 76.0937 46.9319C77.4513 46.2725 78.7508 45.6519 79.9921 45.07C80.4188 43.9451 80.8843 42.5292 81.3885 40.8225C81.9316 39.0769 82.3971 37.4671 82.785 35.9931C81.5825 37.6611 80.3024 39.1351 78.9447 40.4152C77.5871 41.6953 76.0743 42.3353 74.4063 42.3353C73.7081 42.3353 72.9711 42.1995 72.1952 41.928C71.4194 41.6177 70.76 41.1134 70.2169 40.4152C69.7127 39.6782 69.4605 38.7084 69.4605 37.5059C69.4605 36.4974 69.6351 35.2755 69.9842 33.8402C70.3721 32.405 70.8376 31.0085 71.3807 29.6509C71.9625 28.2544 72.5638 27.1101 73.1844 26.218C73.805 25.287 74.3481 24.8215 74.8136 24.8215C75.0463 24.8215 75.376 24.9185 75.8027 25.1124C76.2682 25.2676 76.7143 25.5003 77.141 25.8107C77.5677 26.0822 77.8392 26.3925 77.9556 26.7416C77.6065 27.2071 77.2186 27.8859 76.7919 28.7781C76.3652 29.6315 75.9579 30.6013 75.57 31.6874C75.1821 32.7347 74.8524 33.7627 74.5808 34.7712C74.3481 35.7797 74.2317 36.6525 74.2317 37.3895C74.2317 37.9714 74.3481 38.4757 74.5808 38.9024C74.8136 39.3291 75.2597 39.5424 75.9191 39.5424C76.7725 39.5424 77.6453 39.1933 78.5375 38.4951C79.4684 37.7968 80.3606 36.9047 81.214 35.8185C82.1062 34.7324 82.9014 33.6269 83.5996 32.502C83.6772 32.2304 83.7547 31.8037 83.8323 31.2219C83.9099 30.64 84.0457 30.0388 84.2396 29.4181C84.4336 28.7587 84.7633 28.1575 85.2288 27.6144C85.733 27.0713 86.4313 26.7998 87.3234 26.7998C87.6338 26.7998 87.9247 26.8192 88.1962 26.858C88.4678 26.8968 88.7975 26.955 89.1854 27.0325C89.1854 27.6144 88.972 28.7587 88.5453 30.4655C88.1574 32.1335 87.6338 34.073 86.9743 36.284C86.3149 38.4951 85.5779 40.7061 84.7633 42.9172C86.3925 42.2577 88.0798 41.1716 89.8254 39.6588C91.6098 38.1072 93.045 35.9155 94.1311 33.0838L95.1203 33.8984C94.5384 35.8379 93.6462 37.5253 92.4438 38.9605C91.28 40.3958 89.9612 41.6177 88.4871 42.6262C87.0131 43.6348 85.5197 44.4688 84.0069 45.1282C82.9595 47.6496 81.8152 49.977 80.5739 52.1104C79.3714 54.2439 78.0914 55.9313 76.7337 57.1726C75.376 58.4526 73.9214 59.0927 72.3698 59.0927ZM71.7879 56.9398C72.525 56.9398 73.5529 56.164 74.8718 54.6124C76.1906 53.0608 77.5289 50.7334 78.8866 47.6302C77.6453 48.2508 76.3846 48.9684 75.1045 49.783C73.8632 50.6364 72.8159 51.5286 71.9625 52.4596C71.1091 53.3905 70.6824 54.3409 70.6824 55.3106C70.6824 55.6985 70.76 56.067 70.9152 56.4162C71.1091 56.7653 71.4 56.9398 71.7879 56.9398ZM114.796 47.8629C113.632 47.8629 112.527 47.5526 111.479 46.9319C110.471 46.3113 109.967 45.5161 109.967 44.5463C109.967 44.0421 110.044 43.499 110.199 42.9172C110.393 42.3353 110.568 41.7922 110.723 41.288C111.926 37.6029 113.05 34.17 114.098 30.9892C115.145 27.7696 116.192 24.6857 117.24 21.7377C118.326 18.7508 119.451 15.764 120.615 12.7771C121.817 9.79028 123.155 6.66767 124.629 3.40929C123.155 3.71961 121.895 4.12691 120.847 4.63118C119.8 5.09667 118.947 5.52336 118.287 5.91126C117.628 6.26038 117.143 6.43493 116.833 6.43493C116.639 6.43493 116.348 6.29916 115.96 6.02763C115.611 5.7561 115.3 5.44578 115.029 5.09667C114.757 4.74756 114.621 4.43723 114.621 4.1657C115.708 3.70022 116.968 3.21534 118.404 2.71107C119.878 2.20679 121.468 1.7801 123.175 1.43099C124.881 1.08188 126.588 0.90732 128.295 0.90732C130.118 0.90732 131.98 1.15946 133.881 1.66373C135.782 2.12921 137.527 2.84683 139.118 3.81659C140.747 4.74755 142.046 5.93066 143.016 7.3659C144.024 8.76234 144.529 10.4109 144.529 12.3116C144.529 14.3675 144.063 16.1325 143.132 17.6065C142.201 19.0805 140.96 20.3218 139.408 21.3304C137.896 22.3389 136.247 23.1535 134.463 23.7742C132.678 24.3948 130.894 24.8603 129.11 25.1706C127.364 25.4809 125.793 25.6943 124.397 25.8107C123 25.927 121.953 25.9852 121.255 25.9852H120.905C119.819 29.8254 118.753 33.6657 117.705 37.5059C116.658 41.3074 115.688 44.7597 114.796 47.8629ZM121.429 24.1815C123.601 24.0263 125.774 23.6578 127.946 23.0759C130.118 22.4941 132.077 21.6989 133.823 20.6903C135.607 19.643 137.023 18.3435 138.07 16.7919C139.156 15.2403 139.699 13.4366 139.699 11.3807C139.699 9.44117 139.176 7.87017 138.128 6.66767C137.12 5.46517 135.801 4.5536 134.172 3.93296C132.581 3.31232 130.894 2.9826 129.11 2.94381C127.713 5.65912 126.375 8.87871 125.095 12.6026C123.815 16.2877 122.593 20.1473 121.429 24.1815ZM139.885 45.5355C138.605 45.5355 137.499 45.1088 136.568 44.2554C135.598 43.402 135.114 42.122 135.114 40.4152C135.114 39.0575 135.424 37.5835 136.045 35.9931C136.665 34.4027 137.519 32.8317 138.605 31.2801C139.691 29.7285 140.932 28.332 142.329 27.0907C143.725 25.8107 145.218 24.7827 146.809 24.0069C148.399 23.2311 149.99 22.8432 151.58 22.8432C153.248 22.8432 154.664 23.2699 155.828 24.1233C156.991 24.9767 157.573 26.1016 157.573 27.498C157.573 28.5454 157.205 29.3018 156.468 29.7673C155.731 30.2327 154.858 30.3685 153.849 30.1746C153.927 29.8254 153.985 29.4763 154.024 29.1272C154.101 28.7781 154.14 28.4096 154.14 28.0217C154.14 27.2459 153.985 26.5477 153.675 25.927C153.364 25.3064 152.705 24.9961 151.696 24.9961C150.61 24.9961 149.505 25.3646 148.38 26.1016C147.255 26.8386 146.169 27.8084 145.121 29.0108C144.113 30.1746 143.201 31.474 142.387 32.9093C141.572 34.3057 140.932 35.6828 140.467 37.0404C140.001 38.3981 139.768 39.62 139.768 40.7061C139.768 41.9474 140.215 42.568 141.107 42.568C141.999 42.568 142.988 42.1413 144.074 41.288C145.16 40.3958 146.246 39.2903 147.333 37.9714C148.457 36.6525 149.524 35.3143 150.533 33.9566C151.541 32.5602 152.414 31.3771 153.151 30.4073C153.267 30.2133 153.423 30.1164 153.617 30.1164C153.772 30.1552 154.063 30.2521 154.489 30.4073C154.955 30.5237 155.382 30.7176 155.769 30.9892C156.157 31.2607 156.351 31.6098 156.351 32.0365C156.351 32.4244 156.177 32.9287 155.828 33.5493C155.517 34.1312 155.129 34.7906 154.664 35.5276C154.237 36.2258 153.849 36.9435 153.5 37.6805C153.19 38.3787 153.035 39.0575 153.035 39.717C153.035 40.2212 153.17 40.7061 153.442 41.1716C153.714 41.5983 154.16 41.8116 154.78 41.8116C155.711 41.8116 157.011 41.1328 158.679 39.7751C160.385 38.3787 162.112 36.0319 163.857 32.7347L164.963 33.8402C164.032 35.9349 162.907 37.7968 161.588 39.426C160.308 41.0164 158.95 42.2577 157.515 43.1499C156.08 44.0809 154.625 44.5463 153.151 44.5463C151.561 44.5463 150.378 44.0421 149.602 43.0335C148.826 42.025 148.399 40.9388 148.322 39.7751C148.322 39.6976 148.322 39.6394 148.322 39.6006C148.322 39.5618 148.322 39.523 148.322 39.4842C146.77 41.3461 145.335 42.8202 144.016 43.9063C142.736 44.9924 141.359 45.5355 139.885 45.5355ZM167.135 44.5463C165.428 44.5463 164.148 44.0421 163.295 43.0335C162.441 42.025 162.015 40.8031 162.015 39.3678C162.015 38.4757 162.17 37.3508 162.48 35.9931C162.791 34.6354 163.217 33.2196 163.76 31.7456C164.342 30.2327 165.002 28.8169 165.739 27.498C166.476 26.1792 167.271 25.1124 168.124 24.2978C168.978 23.4445 169.831 23.0178 170.684 23.0178C171.15 23.0178 171.557 23.1729 171.906 23.4832C172.255 23.7548 172.43 24.1621 172.43 24.7051C172.43 25.2094 172.12 25.9658 171.499 26.9744C170.917 27.9829 170.219 29.1466 169.404 30.4655C168.629 31.7844 167.93 33.1614 167.31 34.5966C166.728 35.9931 166.437 37.3314 166.437 38.6114C166.437 39.8527 166.65 40.6867 167.077 41.1134C167.542 41.5013 168.202 41.6953 169.055 41.6953C170.374 41.6953 171.809 41.0358 173.361 39.717C174.913 38.3981 176.522 36.0901 178.19 32.7929L179.063 33.7239C177.705 37.1374 175.979 39.7945 173.885 41.6953C171.79 43.596 169.54 44.5463 167.135 44.5463ZM174.001 18.3047C173.264 18.3047 172.585 18.1302 171.964 17.7811C171.383 17.3932 171.092 16.8113 171.092 16.0355C171.092 15.1045 171.596 14.3093 172.605 13.6499C173.613 12.9905 174.66 12.6608 175.747 12.6608C176.445 12.6608 177.027 12.8159 177.492 13.1262C177.996 13.4366 178.249 13.999 178.249 14.8136C178.249 15.6282 177.802 16.4234 176.91 17.1992C176.018 17.9362 175.048 18.3047 174.001 18.3047ZM196.294 43.9645C194.781 43.9645 193.618 43.5766 192.803 42.8008C192.027 42.0638 191.639 41.1134 191.639 39.9497C191.639 39.1739 191.775 38.3593 192.047 37.5059C192.318 36.6137 192.59 35.7216 192.861 34.8294C193.133 33.9372 193.269 33.0838 193.269 32.2692C193.269 31.4158 193.055 30.834 192.628 30.5237C192.241 30.1746 191.775 30 191.232 30C190.068 30 188.866 30.4849 187.625 31.4546C186.422 32.3856 185.239 33.5687 184.075 35.0039C182.95 36.4392 181.884 37.9326 180.875 39.4842C179.866 41.0358 178.994 42.4323 178.257 43.6736C177.52 43.6736 176.821 43.5378 176.162 43.2663C175.503 43.0335 174.94 42.6068 174.475 41.9862C174.513 41.7922 174.746 41.2104 175.173 40.2406C175.561 39.2321 176.007 38.049 176.511 36.6913C177.015 35.2949 177.462 33.8402 177.849 32.3274C178.237 30.8146 178.431 29.4375 178.431 28.1963C178.703 27.8859 179.11 27.5756 179.653 27.2653C180.235 26.955 180.836 26.7998 181.457 26.7998C182.815 26.7998 183.493 27.3817 183.493 28.5454C183.493 29.0109 183.396 29.7091 183.202 30.64C183.047 31.5322 182.815 32.5602 182.504 33.7239C183.513 32.3662 184.618 31.0861 185.821 29.8836C187.023 28.6811 188.265 27.7114 189.545 26.9744C190.864 26.1986 192.182 25.8107 193.501 25.8107C195.169 25.8107 196.391 26.3731 197.167 27.498C197.982 28.6229 198.389 29.8642 198.389 31.2219C198.389 32.3856 198.195 33.4717 197.807 34.4803C197.419 35.4888 197.031 36.4392 196.643 37.3314C196.294 38.2235 196.12 39.0963 196.12 39.9497C196.12 40.5703 196.255 41.0164 196.527 41.288C196.837 41.5207 197.167 41.6371 197.516 41.6371C198.447 41.6371 199.417 41.191 200.425 40.2988C201.434 39.4066 202.384 38.2817 203.276 36.9241C204.207 35.5276 205.022 34.1312 205.72 32.7347L206.709 33.5493C205.895 35.45 204.964 37.1956 203.916 38.786C202.908 40.3376 201.764 41.5983 200.484 42.568C199.242 43.499 197.846 43.9645 196.294 43.9645ZM209.482 45.4773C207.775 45.4773 206.398 44.973 205.351 43.9645C204.304 42.9559 203.78 41.4237 203.78 39.3678C203.78 37.7774 204.071 35.7991 204.653 33.4329C205.274 31.0667 206.049 28.6229 206.98 26.1016C206.709 26.024 206.379 25.9658 205.991 25.927C205.642 25.8494 205.293 25.7331 204.944 25.5779V23.7742C205.564 23.8517 206.069 23.9099 206.457 23.9487C206.883 23.9875 207.31 24.0263 207.737 24.0651C208.551 22.0092 209.424 20.0309 210.355 18.1302C211.325 16.1907 212.275 14.4645 213.206 12.9517C214.176 11.4389 215.087 10.2558 215.941 9.40238C216.794 8.51021 217.551 8.06412 218.21 8.06412C218.598 8.06412 218.966 8.21928 219.316 8.5296C219.665 8.80113 219.839 9.20843 219.839 9.7515C219.839 10.5273 219.432 11.6328 218.617 13.0681C217.842 14.5033 216.872 16.1907 215.708 18.1302C214.544 20.0309 213.419 22.0674 212.333 24.2397C212.644 24.2397 212.954 24.2397 213.264 24.2397C213.575 24.2397 213.866 24.2397 214.137 24.2397C215.844 24.2397 217.376 24.2203 218.734 24.1815C220.13 24.1039 221.546 23.9875 222.981 23.8324V25.7525C220.848 25.9464 218.889 26.1016 217.105 26.218C215.32 26.3343 213.613 26.4119 211.984 26.4507C211.868 26.4507 211.751 26.4507 211.635 26.4507C211.519 26.4507 211.402 26.4507 211.286 26.4507C210.471 28.3514 209.754 30.3103 209.133 32.3274C208.551 34.3057 208.26 36.2452 208.26 38.146C208.26 39.7364 208.512 40.8613 209.017 41.5207C209.521 42.1801 210.316 42.5099 211.402 42.5099C213.342 42.5099 215.32 41.6371 217.337 39.8915C219.393 38.1072 221.178 35.7022 222.69 32.6765L223.505 33.2584C222.496 35.547 221.236 37.6223 219.723 39.4842C218.249 41.3461 216.639 42.8008 214.893 43.8481C213.148 44.9342 211.344 45.4773 209.482 45.4773Z" fill="#FF4848"/>
</svg>
