<svg width="84" height="75" viewBox="0 0 84 69" fill="none" xmlns="http://www.w3.org/2000/svg">
<path d="M84 44.82C84 56.9482 74.1682 66.78 62.04 66.78L29.1 66.78C25.7311 66.78 23 64.049 23 60.68L23 19.2C23 12.4622 28.4621 7.00003 35.2 7.00003L77.9 7.00004C81.2689 7.00004 84 9.7311 84 13.1L84 44.82Z" fill="#FACA0A"/>
<path d="M64.1457 0.0863334C63.8867 0.0863334 63.8004 0.259 63.6277 0.345334L31.2527 23.31C30.9074 23.569 30.3894 24.2597 30.1304 24.6914L29.008 26.8497C35.224 28.8354 39.9724 33.5837 41.958 39.7997L44.1164 38.6774C44.548 38.4184 45.1524 37.9867 45.4977 37.555L68.4624 5.18C68.7214 4.74834 68.8077 4.403 68.4624 4.05767L64.6637 0.259C64.491 0.0863334 64.3184 0 64.1457 0V0.0863334ZM22.8783 34.3607C16.4897 34.3607 11.5687 39.627 11.5687 45.9294C11.5687 54.4764 6.82034 61.901 0 65.8724C3.367 67.7717 7.42467 68.8077 11.5687 68.8077C24.2597 68.8077 34.5334 58.6204 34.5334 45.843C34.5334 39.4544 29.267 34.2744 22.9647 34.2744L22.8783 34.3607Z" fill="black"/>
</svg>
